<?xml version="1.0" encoding="UTF-8"?>
<svg id="Layer_2" data-name="Layer 2" xmlns="http://www.w3.org/2000/svg" xmlns:xlink="http://www.w3.org/1999/xlink" viewBox="0 0 272.15 285.94">
  <defs>
    <style>
      .cls-1 {
        fill: url(#linear-gradient-5);
      }

      .cls-2 {
        fill: url(#linear-gradient-6);
      }

      .cls-3 {
        fill: url(#linear-gradient-4);
      }

      .cls-4 {
        fill: url(#linear-gradient-3);
      }

      .cls-5 {
        fill: url(#linear-gradient-2);
      }

      .cls-6 {
        fill: url(#linear-gradient);
      }

      .cls-7 {
        fill: url(#_Безымянный_градиент_171);
      }

      .cls-8 {
        fill: url(#_Безымянный_градиент_171-2);
      }

      .cls-9 {
        fill: url(#Degradado_sin_nombre_11-2);
      }

      .cls-9, .cls-10 {
        opacity: .7;
      }

      .cls-10 {
        fill: url(#Degradado_sin_nombre_11);
      }
    </style>
    <linearGradient id="linear-gradient" x1="795.03" y1="645.54" x2="826.02" y2="645.54" gradientTransform="translate(878.44 -729.68) rotate(90)" gradientUnits="userSpaceOnUse">
      <stop offset="0" stop-color="#f49519"/>
      <stop offset="1" stop-color="#ffbe2e"/>
    </linearGradient>
    <linearGradient id="linear-gradient-2" x1="729.68" y1="747.09" x2="774.12" y2="747.09" xlink:href="#linear-gradient"/>
    <linearGradient id="linear-gradient-3" x1="795.03" y1="848.63" x2="826.02" y2="848.63" xlink:href="#linear-gradient"/>
    <linearGradient id="linear-gradient-4" x1="742.65" y1="686.11" x2="784.42" y2="686.11" xlink:href="#linear-gradient"/>
    <linearGradient id="linear-gradient-5" x1="742.65" y1="808.06" x2="784.42" y2="808.06" xlink:href="#linear-gradient"/>
    <linearGradient id="linear-gradient-6" x1="53.25" y1="99.99" x2="209.45" y2="99.99" gradientTransform="matrix(1,0,0,1,0,0)" xlink:href="#linear-gradient"/>
    <linearGradient id="Degradado_sin_nombre_11" data-name="Degradado sin nombre 11" x1="109.81" y1="187.49" x2="162.34" y2="187.49" gradientUnits="userSpaceOnUse">
      <stop offset="0" stop-color="#1d91d8"/>
      <stop offset="1" stop-color="#1d91d8" stop-opacity=".4"/>
    </linearGradient>
    <linearGradient id="Degradado_sin_nombre_11-2" data-name="Degradado sin nombre 11" x1="11.8" y1="230.85" x2="256.45" y2="230.85" xlink:href="#Degradado_sin_nombre_11"/>
    <linearGradient id="_Безымянный_градиент_171" data-name="Безымянный градиент 171" x1="-10.34" y1="137.76" x2="282.28" y2="137.76" gradientUnits="userSpaceOnUse">
      <stop offset=".03" stop-color="#c8c92f"/>
      <stop offset="1" stop-color="#829b24"/>
    </linearGradient>
    <linearGradient id="_Безымянный_градиент_171-2" data-name="Безымянный градиент 171" y1="175.76" y2="175.76" xlink:href="#_Безымянный_градиент_171"/>
  </defs>
  <g id="OBJECTS">
    <g>
      <g>
        <path class="cls-6" d="M216.86,79.96c-2.82,1.62-4.39,4.58-4.39,7.61,0,1.49.38,3,1.18,4.38,2.42,4.2,7.79,5.64,11.99,3.21l23.28-13.44c4.2-2.42,5.64-7.79,3.21-11.99-2.42-4.2-7.79-5.64-11.99-3.21l-23.28,13.44Z"/>
        <path class="cls-5" d="M131.35,44.43c4.85,0,8.78-3.93,8.78-8.78V8.78c0-4.85-3.93-8.78-8.78-8.78s-8.78,3.93-8.78,8.78v26.88c0,4.85,3.93,8.78,8.78,8.78Z"/>
        <path class="cls-4" d="M49.05,91.95c2.42-4.2.99-9.56-3.21-11.99l-23.28-13.44c-4.2-2.42-9.57-.99-11.99,3.21-.8,1.38-1.18,2.89-1.18,4.38,0,3.03,1.57,5.98,4.39,7.61l23.28,13.44c4.2,2.42,9.57.99,11.99-3.21Z"/>
        <path class="cls-3" d="M192.94,50.35l13.98-24.21c2.42-4.2.99-9.57-3.21-11.99-4.2-2.42-9.57-.98-11.99,3.21l-13.98,24.21c-.8,1.38-1.18,2.89-1.18,4.38,0,3.03,1.57,5.98,4.39,7.61,4.2,2.42,9.57.98,11.99-3.21Z"/>
        <path class="cls-1" d="M84.96,41.57l-13.98-24.21c-2.42-4.2-7.79-5.63-11.99-3.21-2.82,1.62-4.39,4.57-4.39,7.61,0,1.49.38,3,1.18,4.38l13.98,24.21c2.42,4.2,7.79,5.63,11.99,3.21,4.2-2.42,5.64-7.79,3.21-11.99Z"/>
        <path class="cls-2" d="M209.45,138.63c-.45-42.75-35.24-77.27-78.1-77.27s-77.65,33.34-78.1,76.09l156.2,1.19Z"/>
      </g>
      <g>
        <path class="cls-10" d="M120.46,195.83c1.21,2.09,3.44,3.38,5.85,3.38h19.52c2.42,0,4.65-1.29,5.85-3.38l9.76-16.9c.57-.98.86-2.07.89-3.17h-14.68l-5.73,9.93h-11.71l-5.73-9.93h-14.68c.03,1.1.33,2.18.89,3.17l9.76,16.9Z"/>
        <path class="cls-9" d="M180.58,175.76l-22.19,38.43h-44.63l-22.19-38.43H11.8c.11,3.63.95,6.55,4.61,6.55h20.16l-8.62,10.32c-1.06,1.26-1.57,2.8-1.57,4.33,0,1.94.83,3.86,2.43,5.19,2.87,2.39,7.13,2.01,9.52-.86l15.85-18.99h25.56l22.31,38.64-12.78,22.13-24.38,4.23c-3.29.57-5.61,3.43-5.61,6.65,0,.38.03.77.1,1.16.64,3.68,4.14,6.14,7.82,5.5l13.26-2.3-10.08,17.46c-.61,1.07-.91,2.23-.91,3.37,0,2.34,1.21,4.61,3.38,5.86,3.23,1.87,7.37.76,9.24-2.47l10.08-17.46,4.64,12.63c1.29,3.5,5.17,5.3,8.68,4.02,3.5-1.29,5.3-5.17,4.02-8.68l-8.52-23.23,12.78-22.13h44.63l12.78,22.14-8.52,23.22c-.28.77-.42,1.56-.42,2.33,0,2.75,1.7,5.34,4.43,6.35,3.51,1.29,7.39-.51,8.68-4.02l4.64-12.63,10.08,17.46c1.87,3.23,6,4.34,9.23,2.47,3.23-1.87,4.34-6,2.47-9.23l-10.08-17.47,13.27,2.3c3.68.64,7.18-1.83,7.82-5.51.64-3.67-1.83-7.18-5.51-7.82l-24.38-4.23-12.78-22.13,22.32-38.65h25.56l15.85,18.99c2.39,2.87,6.66,3.25,9.52.86,2.87-2.39,3.25-6.65.86-9.52l-8.62-10.32h14.12c3.66,0,6.64-2.91,6.75-6.55l-38.87.89-37-.89Z"/>
      </g>
      <path class="cls-7" d="M0,150.38c1.5-2.7,3.53-5.08,5.64-7.39,2.17-2.23,4.48-4.39,6.98-6.3,2.45-2,5.1-3.7,7.77-5.42,1.35-.81,2.74-1.58,4.13-2.36,1.38-.79,2.82-1.42,4.25-2.15,11.47-5.54,23.95-8.82,36.51-10.49,3.14-.36,6.29-.67,9.45-.98,3.15-.15,6.31-.27,9.48-.37,3.17-.01,6.36.09,9.55.19,3.19.16,6.37.49,9.56.78,12.75,1.41,25.16,4.68,36.6,8.16,11.5,3.53,22,6.91,32.71,9.27,5.34,1.21,10.72,2.13,16.19,2.88l2.05.3,2.07.2,4.15.42c1.38.16,2.77.32,4.16.37l4.18.27c11.15.6,22.38.55,33.56-.99l4.21-.6c1.4-.24,2.76-.56,4.18-.8,1.42-.22,2.79-.59,4.18-.92l2.1-.5,2.07-.58c5.54-1.6,11.1-3.52,16.42-6.5-1.56,2.67-3.64,5.01-5.82,7.25-1.11,1.09-2.25,2.19-3.45,3.19-.59.52-1.19,1.03-1.8,1.53l-1.88,1.42c-5.05,3.76-10.58,6.97-16.37,9.55-1.43.72-2.91,1.24-4.39,1.84-1.48.57-2.96,1.19-4.46,1.69l-4.54,1.44-2.28.71-2.3.58c-3.07.75-6.17,1.56-9.29,2.05-3.12.53-6.26,1.14-9.39,1.4-6.28.78-12.61,1.07-18.99,1.06l-4.79-.11-2.4-.07-2.39-.2c-3.19-.28-6.41-.49-9.56-1.02-12.7-1.73-24.99-5.21-36.17-8.66-11.26-3.44-21.77-6.63-32.53-8.73l-4.05-.71c-1.35-.23-2.69-.55-4.06-.71-2.73-.33-5.45-.79-8.21-1.11-2.77-.26-5.54-.53-8.32-.83-2.77-.15-5.55-.3-8.35-.5-2.78-.1-5.56-.1-8.36-.18-1.41-.06-2.78.06-4.18.07l-4.2.09c-2.77.21-5.58.35-8.37.61-2.76.36-5.6.57-8.36,1.09-5.6.81-11.14,2.12-16.65,3.8-5.5,1.74-11,3.82-16.25,6.93Z"/>
      <path class="cls-8" d="M0,188.38c1.5-2.7,3.53-5.08,5.64-7.39,2.17-2.23,4.48-4.39,6.98-6.3,2.45-2,5.1-3.7,7.77-5.42,1.35-.81,2.74-1.58,4.13-2.36,1.38-.79,2.82-1.42,4.25-2.15,11.47-5.54,23.95-8.82,36.51-10.49,3.14-.36,6.29-.67,9.45-.98,3.15-.15,6.31-.27,9.48-.37,3.17-.01,6.36.09,9.55.19,3.19.16,6.37.49,9.56.78,12.75,1.41,25.16,4.68,36.6,8.16,11.5,3.53,22,6.91,32.71,9.27,5.34,1.21,10.72,2.13,16.19,2.88l2.05.3,2.07.2,4.15.42c1.38.16,2.77.32,4.16.37l4.18.27c11.15.6,22.38.55,33.56-.99l4.21-.6c1.4-.24,2.76-.56,4.18-.8,1.42-.22,2.79-.59,4.18-.92l2.1-.5,2.07-.58c5.54-1.6,11.1-3.52,16.42-6.5-1.56,2.67-3.64,5.01-5.82,7.25-1.11,1.09-2.25,2.19-3.45,3.19-.59.52-1.19,1.03-1.8,1.53l-1.88,1.42c-5.05,3.76-10.58,6.97-16.37,9.55-1.43.72-2.91,1.24-4.39,1.84-1.48.57-2.96,1.19-4.46,1.69l-4.54,1.44-2.28.71-2.3.58c-3.07.75-6.17,1.56-9.29,2.05-3.12.53-6.26,1.14-9.39,1.4-6.28.78-12.61,1.07-18.99,1.06l-4.79-.11-2.4-.07-2.39-.2c-3.19-.28-6.41-.49-9.56-1.02-12.7-1.73-24.99-5.21-36.17-8.66-11.26-3.44-21.77-6.63-32.53-8.73l-4.05-.71c-1.35-.23-2.69-.55-4.06-.71-2.73-.33-5.45-.79-8.21-1.11-2.77-.26-5.54-.53-8.32-.83-2.77-.15-5.55-.3-8.35-.5-2.78-.1-5.56-.1-8.36-.18-1.41-.06-2.78.06-4.18.07l-4.2.09c-2.77.21-5.58.35-8.37.61-2.76.36-5.6.57-8.36,1.09-5.6.81-11.14,2.12-16.65,3.8-5.5,1.74-11,3.82-16.25,6.93Z"/>
    </g>
  </g>
</svg>